<svg xmlns="http://www.w3.org/2000/svg" xmlns:xlink="http://www.w3.org/1999/xlink" width="24" height="24" version="1.1" viewBox="0 0 24 24"><title>Icon For Compilation</title><g fill="none" fill-rule="evenodd" stroke="none" stroke-width="1"><rect width="24" height="24" x="0" y="0" opacity="0"/><path fill="#000" d="M3.5,21 L20.5,21 C21.3284271,21 22,20.3284271 22,19.5 L22,8.5 C22,7.67157288 21.3284271,7 20.5,7 L10,7 L7.43933983,4.43933983 C7.15803526,4.15803526 6.77650439,4 6.37867966,4 L3.5,4 C2.67157288,4 2,4.67157288 2,5.5 L2,19.5 C2,20.3284271 2.67157288,21 3.5,21 Z" opacity=".3"/><rect width="3.143" height="3.143" x="7.413" y="12.556" fill="#000" opacity=".3" rx=".75" transform="translate(8.984240, 14.127098) rotate(-45.000000) translate(-8.984240, -14.127098)"/><rect width="3.143" height="3.143" x="13.699" y="12.556" fill="#000" opacity=".3" rx=".75" transform="translate(15.269955, 14.127098) rotate(-45.000000) translate(-15.269955, -14.127098)"/><rect width="3.143" height="3.143" x="10.556" y="15.699" fill="#000" rx=".75" transform="translate(12.127098, 17.269955) rotate(-45.000000) translate(-12.127098, -17.269955)"/><rect width="3.143" height="3.143" x="10.556" y="9.413" fill="#000" rx=".75" transform="translate(12.127098, 10.984240) rotate(-45.000000) translate(-12.127098, -10.984240)"/></g></svg>