<svg xmlns="http://www.w3.org/2000/svg" xmlns:xlink="http://www.w3.org/1999/xlink" width="24" height="24" version="1.1" viewBox="0 0 24 24"><title>Icon For Option</title><g fill="none" fill-rule="evenodd" stroke="none" stroke-width="1"><rect width="24" height="24" x="0" y="0" opacity="0"/><rect width="10" height="2" x="12" y="7" fill="#000" opacity=".3" rx="1"/><path fill="#000" fill-rule="nonzero" d="M2,9 C1.44771525,9 1,8.55228475 1,8 C1,7.44771525 1.44771525,7 2,7 L7.35012691,7 C8.14050434,7 8.85674733,7.46546704 9.17775001,8.18772307 L12.6498731,16 L22,16 C22.5522847,16 23,16.4477153 23,17 C23,17.5522847 22.5522847,18 22,18 L12.6498731,18 C11.8594957,18 11.1432527,17.534533 10.82225,16.8122769 L7.35012691,9 L2,9 Z"/></g></svg>