<svg xmlns="http://www.w3.org/2000/svg" width="1333.333" height="1333.333" preserveAspectRatio="xMidYMid meet" version="1.0" viewBox="0 0 1000 1000"><metadata>Created by potrace 1.11, written by Peter Selinger 2001-2013</metadata><g fill="#000" stroke="none"><path d="M2088 9984 c-2 -2 -19 -5 -37 -6 -18 -1 -35 -6 -37 -10 -3 -4 -16 -8 -30 -8 -13 0 -24 -4 -24 -10 0 -5 -8 -10 -19 -10 -10 0 -30 -9 -44 -20 -14 -11 -29 -20 -34 -20 -15 0 -155 -141 -176 -175 -59 -100 -96 -196 -111 -295 -3 -14 -5 -414 -5 -891 l-1 -865 -89 -90 c-72 -73 -154 -168 -244 -284 -88 -113 -317 -513 -317 -554 0 -9 -4 -16 -10 -16 -5 0 -10 -6 -10 -13 0 -7 -9 -31 -20 -54 -10 -22 -26 -58 -34 -79 -56 -152 -83 -234 -78 -239 3 -3 1 -5 -5 -5 -5 0 -10 -6 -11 -12 -1 -16 -7 -38 -15 -58 -16 -40 -55 -199 -49 -204 3 -3 1 -6 -4 -6 -5 0 -11 -12 -12 -26 -1 -14 -8 -51 -16 -82 -16 -61 -51 -258 -61 -338 -3 -27 -8 -58 -10 -69 -3 -18 -11 -94 -20 -200 -2 -22 -4 -40 -5 -40 -4 0 -8 -157 -9 -315 -1 -278 12 -480 44 -700 2 -14 6 -43 10 -65 3 -23 8 -52 10 -65 10 -47 17 -85 20 -105 5 -31 36 -179 40 -193 3 -7 5 -16 6 -20 1 -4 11 -38 21 -77 11 -38 21 -74 22 -80 8 -34 29 -102 34 -110 4 -5 7 -14 8 -20 3 -16 44 -137 59 -170 7 -16 26 -64 43 -105 94 -233 267 -542 389 -695 5 -5 24 -30 43 -55 19 -25 46 -58 60 -75 44 -52 256 -262 283 -280 14 -9 31 -33 37 -53 7 -20 22 -59 35 -87 13 -27 35 -77 51 -110 15 -33 30 -62 33 -65 6 -5 20 -28 46 -75 20 -36 115 -175 138 -201 7 -7 23 -27 37 -45 14 -17 33 -41 43 -52 27 -33 217 -225 217 -220 0 2 19 -14 43 -36 23 -21 74 -63 112 -93 39 -29 72 -56 73 -61 2 -4 8 -5 13 -1 5 3 9 1 9 -4 0 -10 134 -102 149 -102 5 0 11 -4 13 -8 8 -20 280 -169 428 -235 126 -56 401 -162 450 -172 8 -2 15 -4 15 -5 0 -1 7 -3 15 -5 39 -9 153 -45 157 -49 3 -2 -1 -15 -8 -28 -7 -12 -14 -25 -14 -28 -1 -3 -4 -18 -8 -35 -4 -16 -9 -40 -12 -53 -6 -35 -8 -292 -1 -299 6 -7 925 -8 931 -1 7 7 7 276 0 288 -5 8 155 7 350 -2 21 -1 356 12 367 15 7 1 10 -45 9 -150 l-2 -153 33 -1 c38 -1 784 -1 839 0 l35 1 -2 133 c-2 72 -5 146 -9 162 -3 17 -8 41 -11 54 -3 13 -12 40 -20 59 -8 19 -12 37 -10 39 2 3 19 7 37 10 19 3 46 11 60 19 15 7 29 10 32 7 4 -3 14 0 23 8 10 8 19 13 21 11 4 -3 143 40 188 59 17 7 35 13 40 15 31 9 99 36 148 58 31 14 59 26 62 26 10 0 309 151 315 159 3 3 31 20 62 36 32 17 58 33 58 38 0 4 6 7 13 7 8 0 24 9 37 20 13 11 27 20 31 20 4 0 14 6 21 13 7 6 37 28 65 47 29 19 53 38 53 43 0 4 5 7 12 7 9 0 114 85 222 180 30 26 120 116 172 172 24 26 124 149 172 213 23 31 94 148 119 195 15 30 30 57 33 60 6 5 69 151 90 206 6 18 34 51 62 75 87 75 201 192 283 290 62 74 235 319 235 333 0 2 17 33 38 67 21 35 51 91 67 124 17 33 34 63 38 66 5 3 8 9 8 13 -1 3 10 32 25 64 36 78 92 217 110 272 8 25 19 54 24 65 17 36 40 110 40 128 0 9 4 17 8 17 4 0 8 8 9 18 0 9 11 53 23 97 12 44 24 88 26 97 2 10 6 28 10 40 3 13 7 32 9 43 3 11 7 30 10 42 12 53 15 71 25 123 6 30 12 64 14 75 7 38 22 153 31 235 3 30 8 66 10 80 11 62 19 265 18 480 0 216 -3 302 -19 465 -4 33 -7 74 -9 90 -1 17 -5 41 -8 55 -4 14 -8 43 -11 65 -6 48 -16 111 -22 145 -3 14 -7 36 -10 50 -2 14 -11 57 -20 95 -9 39 -18 81 -20 95 -5 26 -62 233 -71 260 -4 8 -7 20 -8 26 -15 67 -129 352 -198 494 -33 69 -61 127 -61 130 -1 3 -9 16 -18 30 -9 14 -24 42 -34 63 -10 20 -21 37 -26 37 -4 0 -8 5 -8 10 0 17 -169 266 -215 316 -5 6 -21 26 -35 43 -14 17 -70 78 -126 136 l-101 104 0 858 c-1 472 -3 874 -7 893 -43 260 -194 455 -410 530 -32 12 -82 23 -112 26 -51 5 -59 3 -141 -44 -132 -76 -210 -118 -293 -159 -41 -21 -77 -40 -80 -43 -9 -11 -264 -135 -268 -132 -3 2 -8 0 -11 -5 -8 -11 -293 -143 -309 -143 -7 0 -12 -5 -12 -12 0 -6 -3 -8 -6 -5 -4 4 -19 0 -33 -7 -14 -7 -37 -18 -51 -24 -88 -39 -141 -61 -143 -61 -3 1 -46 -16 -92 -35 -22 -10 -65 -26 -95 -36 -30 -10 -68 -24 -85 -31 -16 -7 -34 -13 -40 -14 -5 -2 -52 -17 -104 -35 -52 -18 -99 -33 -105 -35 -6 -1 -18 -5 -26 -8 -13 -5 -138 -41 -182 -53 -74 -18 -208 -50 -248 -58 -187 -37 -193 -38 -350 -54 -139 -13 -414 -7 -545 13 -16 3 -46 7 -65 9 -38 5 -81 13 -120 21 -14 3 -36 8 -50 11 -14 3 -32 7 -41 10 -9 2 -33 7 -54 9 -20 3 -41 8 -46 11 -5 3 -18 7 -29 9 -30 6 -213 55 -230 62 -8 3 -19 7 -25 8 -5 0 -17 4 -25 7 -8 4 -60 21 -115 38 -55 18 -113 38 -130 45 -16 7 -48 18 -70 25 -22 7 -44 15 -50 19 -5 3 -14 6 -20 7 -10 2 -141 53 -200 78 -16 8 -75 33 -130 56 -147 63 -165 71 -339 154 -87 42 -163 76 -167 76 -5 0 -9 5 -9 12 0 6 -3 9 -6 5 -3 -3 -27 7 -53 21 -25 15 -87 47 -136 72 -50 25 -92 47 -95 50 -3 3 -27 16 -53 30 -71 37 -115 61 -183 102 -40 23 -74 36 -97 36 -20 0 -37 -2 -39 -4z" transform="translate(0.000000,1000.000000) scale(0.100000,-0.100000)"/></g></svg>