<svg xmlns="http://www.w3.org/2000/svg" xmlns:xlink="http://www.w3.org/1999/xlink" width="24" height="24" version="1.1" viewBox="0 0 24 24"><title>Icon For Anchor-left-down</title><g fill="none" fill-rule="evenodd" stroke="none" stroke-width="1"><rect width="24" height="24" x="0" y="0" opacity="0"/><circle cx="5" cy="19" r="3" fill="#000" opacity=".3"/><g transform="translate(6.000000, 2.000000)"><rect width="16" height="16" x="0" y="0" opacity="0"/><path fill="#000" d="M9,5 L9,12 C9,12.5522847 8.55228475,13 8,13 L8,13 C7.44771525,13 7,12.5522847 7,12 L7,5 L5,5 C4.44771525,5 4,4.55228475 4,4 L4,4 C4,3.44771525 4.44771525,3 5,3 L11,3 C11.5522847,3 12,3.44771525 12,4 L12,4 C12,4.55228475 11.5522847,5 11,5 L9,5 Z"/></g></g></svg>