<svg xmlns="http://www.w3.org/2000/svg" xmlns:xlink="http://www.w3.org/1999/xlink" width="24" height="24" version="1.1" viewBox="0 0 24 24"><title>Icon For Camera</title><g fill="none" fill-rule="evenodd" stroke="none" stroke-width="1"><rect width="24" height="24" x="0" y="0" opacity="0"/><path fill="#000" d="M5,7 L19,7 C20.1045695,7 21,7.8954305 21,9 L21,17 C21,18.1045695 20.1045695,19 19,19 L5,19 C3.8954305,19 3,18.1045695 3,17 L3,9 C3,7.8954305 3.8954305,7 5,7 Z M12,17 C14.209139,17 16,15.209139 16,13 C16,10.790861 14.209139,9 12,9 C9.790861,9 8,10.790861 8,13 C8,15.209139 9.790861,17 12,17 Z"/><rect width="6" height="2" x="9" y="4" fill="#000" opacity=".3" rx="1"/><circle cx="12" cy="13" r="2" fill="#000" opacity=".3"/></g></svg>