<svg xmlns="http://www.w3.org/2000/svg" xmlns:xlink="http://www.w3.org/1999/xlink" width="24" height="24" version="1.1" viewBox="0 0 24 24"><title>Icon For CPU#2</title><g fill="none" fill-rule="evenodd" stroke="none" stroke-width="1"><rect width="24" height="24" x="0" y="0" opacity="0"/><rect width="18" height="18" x="3" y="3" fill="#000" opacity=".3" rx="1"/><path fill="#000" fill-rule="nonzero" d="M11,11 L11,13 L13,13 L13,11 L11,11 Z M10,9 L14,9 C14.5522847,9 15,9.44771525 15,10 L15,14 C15,14.5522847 14.5522847,15 14,15 L10,15 C9.44771525,15 9,14.5522847 9,14 L9,10 C9,9.44771525 9.44771525,9 10,9 Z" opacity=".3"/><rect width="2" height="2" x="5" y="5" fill="#000" opacity=".3" rx=".5"/><rect width="2" height="2" x="5" y="9" fill="#000" opacity=".3" rx=".5"/><rect width="2" height="2" x="5" y="13" fill="#000" opacity=".3" rx=".5"/><rect width="2" height="2" x="9" y="5" fill="#000" opacity=".3" rx=".5"/><rect width="2" height="2" x="13" y="5" fill="#000" opacity=".3" rx=".5"/><rect width="2" height="2" x="17" y="5" fill="#000" opacity=".3" rx=".5"/><rect width="2" height="2" x="17" y="9" fill="#000" opacity=".3" rx=".5"/><rect width="2" height="2" x="17" y="13" fill="#000" opacity=".3" rx=".5"/><rect width="2" height="2" x="5" y="17" fill="#000" opacity=".3" rx=".5"/><rect width="2" height="2" x="9" y="17" fill="#000" opacity=".3" rx=".5"/><rect width="2" height="2" x="13" y="17" fill="#000" opacity=".3" rx=".5"/><rect width="2" height="2" x="17" y="17" fill="#000" opacity=".3" rx=".5"/></g></svg>