<svg xmlns="http://www.w3.org/2000/svg" xmlns:xlink="http://www.w3.org/1999/xlink" width="24" height="24" version="1.1" viewBox="0 0 24 24"><title>Icon For CPU#1</title><g fill="none" fill-rule="evenodd" stroke="none" stroke-width="1"><rect width="24" height="24" x="0" y="0" opacity="0"/><rect width="16" height="16" x="4" y="4" fill="#000" opacity=".3" rx="2"/><rect width="6" height="6" x="9" y="9" fill="#000" opacity=".3"/><path fill="#000" d="M20,7 L21,7 C21.5522847,7 22,7.44771525 22,8 L22,8 C22,8.55228475 21.5522847,9 21,9 L20,9 L20,7 Z"/><path fill="#000" d="M20,11 L21,11 C21.5522847,11 22,11.4477153 22,12 L22,12 C22,12.5522847 21.5522847,13 21,13 L20,13 L20,11 Z"/><path fill="#000" d="M20,15 L21,15 C21.5522847,15 22,15.4477153 22,16 L22,16 C22,16.5522847 21.5522847,17 21,17 L20,17 L20,15 Z"/><path fill="#000" d="M3,7 L4,7 L4,9 L3,9 C2.44771525,9 2,8.55228475 2,8 L2,8 C2,7.44771525 2.44771525,7 3,7 Z"/><path fill="#000" d="M3,11 L4,11 L4,13 L3,13 C2.44771525,13 2,12.5522847 2,12 L2,12 C2,11.4477153 2.44771525,11 3,11 Z"/><path fill="#000" d="M3,15 L4,15 L4,17 L3,17 C2.44771525,17 2,16.5522847 2,16 L2,16 C2,15.4477153 2.44771525,15 3,15 Z"/></g></svg>