<svg xmlns="http://www.w3.org/2000/svg" xmlns:xlink="http://www.w3.org/1999/xlink" width="24" height="24" version="1.1" viewBox="0 0 24 24"><title>Icon For iMac</title><g fill="none" fill-rule="evenodd" stroke="none" stroke-width="1"><rect width="24" height="24" x="0" y="0" opacity="0"/><path fill="#000" fill-rule="nonzero" d="M5,5 L5,16 L19,16 L19,5 L5,5 Z M5,3 L19,3 C20.4201608,3 21,3.7163444 21,4.6 L21,17.4 C21,18.2836556 20.4201608,19 19,19 L5,19 C3.57983921,19 3,18.2836556 3,17.4 L3,4.6 C3,3.7163444 3.57983921,3 5,3 Z M12,18 C12.2761424,18 12.5,17.7761424 12.5,17.5 C12.5,17.2238576 12.2761424,17 12,17 C11.7238576,17 11.5,17.2238576 11.5,17.5 C11.5,17.7761424 11.7238576,18 12,18 Z"/><polygon fill="#000" points="5 5 5 16 19 16 19 5" opacity=".3"/><rect width="4" height="1" x="10" y="20" fill="#000" opacity=".3" rx=".5"/></g></svg>