<svg xmlns="http://www.w3.org/2000/svg" xmlns:xlink="http://www.w3.org/1999/xlink" width="24" height="24" version="1.1" viewBox="0 0 24 24"><title>Icon For Save</title><g fill="none" fill-rule="evenodd" stroke="none" stroke-width="1"><polygon points="0 0 24 0 24 24 0 24" opacity="0"/><path fill="#000" fill-rule="nonzero" d="M17,4 L6,4 C4.79111111,4 4,4.7 4,6 L4,18 C4,19.3 4.79111111,20 6,20 L18,20 C19.2,20 20,19.3 20,18 L20,7.20710678 C20,7.07449854 19.9473216,6.94732158 19.8535534,6.85355339 L17,4 Z M17,11 L7,11 L7,4 L17,4 L17,11 Z"/><rect width="3" height="5" x="12" y="4" fill="#000" opacity=".3" rx=".5"/></g></svg>