<svg xmlns="http://www.w3.org/2000/svg" xmlns:xlink="http://www.w3.org/1999/xlink" width="24" height="24" version="1.1" viewBox="0 0 24 24"><title>Icon For Lamp#2</title><g fill="none" fill-rule="evenodd" stroke="none" stroke-width="1"><rect width="24" height="24" x="0" y="0" opacity="0"/><path fill="#000" d="M12,2 C12.5522847,2 13,2.44771525 13,3 L13,11 C13,11.5522847 12.5522847,12 12,12 C11.4477153,12 11,11.5522847 11,11 L11,3 C11,2.44771525 11.4477153,2 12,2 Z" opacity=".3"/><path fill="#000" d="M8.12601749,19 L15.8739825,19 C15.4299397,20.7252272 13.8638394,22 12,22 C10.1361606,22 8.57006028,20.7252272 8.12601749,19 Z" opacity=".3"/><path fill="#000" d="M12,8 L12,8 C16.9705627,8 21,12.0294373 21,17 L3,17 L3,17 C3,12.0294373 7.02943725,8 12,8 Z"/></g></svg>