<svg xmlns="http://www.w3.org/2000/svg" xmlns:xlink="http://www.w3.org/1999/xlink" width="24" height="24" version="1.1" viewBox="0 0 24 24"><title>Icon For Lamp#1</title><g fill="none" fill-rule="evenodd" stroke="none" stroke-width="1"><rect width="24" height="24" x="0" y="0" opacity="0"/><path fill="#000" d="M10,19 L14,19 C15.1045695,19 16,19.8954305 16,21 L8,21 L8,21 C8,19.8954305 8.8954305,19 10,19 Z"/><rect width="2" height="6" x="11" y="12" fill="#000" opacity=".3" rx="1"/><rect width="2" height="5" x="15.613" y="6.174" fill="#FFF" rx="1" transform="translate(16.612973, 8.673634) rotate(-15.000000) translate(-16.612973, -8.673634)"/><path fill="#000" d="M7.44151844,4 L16.5584816,4 C17.4193424,4 18.1836201,4.55086019 18.4558482,5.36754447 L21,13 L3,13 L5.54415184,5.36754447 C5.81637994,4.55086019 6.58065762,4 7.44151844,4 Z"/></g></svg>