<svg xmlns="http://www.w3.org/2000/svg" xmlns:xlink="http://www.w3.org/1999/xlink" width="24" height="24" version="1.1" viewBox="0 0 24 24"><title>Icon For Down-right</title><g fill="none" fill-rule="evenodd" stroke="none" stroke-width="1"><polygon points="0 0 24 0 24 24 0 24" opacity="0"/><rect width="2" height="14" x="10.646" y="5.146" fill="#000" opacity=".3" rx="1" transform="translate(11.646447, 12.146447) rotate(-225.000000) translate(-11.646447, -12.146447)"/><path fill="#000" fill-rule="nonzero" d="M15.5961941,8.6109127 C15.5961941,8.05862795 16.0439093,7.6109127 16.5961941,7.6109127 C17.1484788,7.6109127 17.5961941,8.05862795 17.5961941,8.6109127 L17.5961941,17.0961941 C17.5961941,17.6315855 17.1745174,18.0719943 16.6396313,18.0952502 L8.50790332,18.4488036 C7.95613984,18.4727933 7.48939965,18.0449482 7.46540994,17.4931847 C7.44142022,16.9414212 7.86926539,16.474681 8.42102887,16.4506913 L15.5961941,16.1387276 L15.5961941,8.6109127 Z"/></g></svg>